:FULLY-SPECIFIED
:FORCE-ALL-JOINTS-BE-3DOF
:DEGREES
544
root 5.81343 16.4234 -4.60277 -106.674 88.0203 -112.295
lfemur -21.629 -5.17137 -21.1968
ltibia 46.424 -0 0
lfoot -28.2505 1.80558 -0.287702
ltoes 7.93188 -0 0
rfemur -52.1615 -1.25789 12.1222
rtibia 62.3629 -0 0
rfoot 7.80414 9.89423 0.00125515
rtoes -19.126 0 0
lowerback 5.65474 -0.718956 -3.37018
upperback 1.22861 -1.08245 1.83364
thorax -1.77331 -0.518651 3.84773
lowerneck -7.41628 -11.6038 -3.00966
upperneck 11.1756 -15.7332 4.12449
head 5.16786 -7.57281 0.640314
lclavicle -1.81226e-15 -2.66372e-15 7.46044e-32
lhumerus -36.5835 -32.3244 101.423
lradius 54.9602 -0 0
lwrist 14.0049 0 0
lhand -4.46057 -0.787703 0.190741
lfingers 7.12502 -0 0
lthumb 21.2603 27.4617 0.00617488
rclavicle -1.81226e-15 -2.66372e-15 7.46044e-32
rhumerus -3.81407 33.4044 -77.9586
rradius 114.68 -0 0
rwrist -10.5533 0 0
rhand -10.4181 -16.2465 0.418919
rfingers 7.12502 -0 0
rthumb 15.5413 -45.0293 0.546099
545
root 5.82227 16.4226 -4.57743 -105.938 88.0097 -111.554
lfemur -21.5428 -4.84746 -21.1613
ltibia 46.3933 -0 0
lfoot -28.323 2.03199 -0.288418
ltoes 7.76809 -0 0
rfemur -52.0033 -1.46329 12.2113
rtibia 62.1959 -0 0
rfoot 7.80062 9.87393 0.00125827
rtoes -19.1943 0 0
lowerback 5.62887 -0.729563 -3.41922
upperback 1.2442 -1.09841 1.83875
thorax -1.74011 -0.52739 3.88112
lowerneck -7.37517 -11.6339 -3.02546
upperneck 11.2079 -15.7804 4.17625
head 5.17849 -7.59293 0.655091
lclavicle -1.84594e-15 -2.53782e-15 7.47894e-32
lhumerus -36.3086 -32.251 101.063
lradius 54.9262 -0 0
lwrist 14.2284 0 0
lhand -4.77052 -0.822855 0.191216
lfingers 7.12502 -0 0
lthumb 20.9628 27.4605 0.00619026
rclavicle -1.84594e-15 -2.53782e-15 7.47894e-32
rhumerus -3.15355 33.0807 -77.749
rradius 115.072 -0 0
rwrist -11.2676 0 0
rhand -10.7551 -16.3176 0.419964
rfingers 7.12502 -0 0
rthumb 15.2168 -45.1255 0.547461
546
root 5.83111 16.4217 -4.55209 -105.21 87.9989 -110.821
lfemur -21.4565 -4.52359 -21.1254
ltibia 46.3626 -0 0
lfoot -28.3954 2.2584 -0.288847
ltoes 7.6043 -0 0
rfemur -51.8454 -1.66893 12.2999
rtibia 62.0289 -0 0
rfoot 7.79711 9.85363 0.00126014
rtoes -19.2627 0 0
lowerback 5.60302 -0.740193 -3.46825
upperback 1.25979 -1.11438 1.84386
thorax -1.70692 -0.536148 3.9145
lowerneck -7.33404 -11.664 -3.04128
upperneck 11.2402 -15.8276 4.22799
head 5.18913 -7.61306 0.669865
lclavicle -1.87962e-15 -2.41192e-15 7.49004e-32
lhumerus -36.0345 -32.1761 100.704
lradius 54.8921 -0 0
lwrist 14.4518 0 0
lhand -5.08047 -0.858009 0.191501
lfingers 7.12502 -0 0
lthumb 20.6653 27.4593 0.00619949
rclavicle -1.87962e-15 -2.41192e-15 7.49004e-32
rhumerus -2.49687 32.755 -77.5446
rradius 115.465 -0 0
rwrist -11.9819 0 0
rhand -11.092 -16.3887 0.420592
rfingers 7.12502 -0 0
rthumb 14.8924 -45.2218 0.548279
547
root 5.83995 16.4208 -4.52675 -104.49 87.9877 -110.095
lfemur -21.37 -4.19978 -21.089
ltibia 46.3319 -0 0
lfoot -28.4679 2.48482 -0.28899
ltoes 7.44051 -0 0
rfemur -51.6879 -1.87481 12.3879
rtibia 61.862 -0 0
rfoot 7.79359 9.83334 0.00126076
rtoes -19.3311 0 0
lowerback 5.57717 -0.750844 -3.51728
upperback 1.27538 -1.13034 1.84897
thorax -1.67373 -0.544926 3.94788
lowerneck -7.2929 -11.694 -3.05712
upperneck 11.2724 -15.8749 4.27971
head 5.19975 -7.63318 0.684636
lclavicle -1.9133e-15 -2.28602e-15 7.49374e-32
lhumerus -35.7612 -32.0998 100.345
lradius 54.858 -0 0
lwrist 14.6753 0 0
lhand -5.39043 -0.893165 0.191596
lfingers 7.12502 -0 0
lthumb 20.3678 27.4581 0.00620257
rclavicle -1.9133e-15 -2.28602e-15 7.49374e-32
rhumerus -1.84396 32.4274 -77.3454
rradius 115.858 -0 0
rwrist -12.6961 0 0
rhand -11.429 -16.4597 0.420801
rfingers 7.12502 -0 0
rthumb 14.5679 -45.318 0.548551
548
root 5.84879 16.42 -4.5014 -103.778 87.9762 -109.378
lfemur -21.2833 -3.87603 -21.0521
ltibia 46.3013 -0 0
lfoot -28.5403 2.71123 -0.288847
ltoes 7.27672 -0 0
rfemur -51.5306 -2.08094 12.4754
rtibia 61.695 -0 0
rfoot 7.79008 9.81304 0.00126014
rtoes -19.3995 0 0
lowerback 5.55133 -0.761518 -3.5663
upperback 1.29097 -1.14631 1.85407
thorax -1.64054 -0.553723 3.98125
lowerneck -7.25174 -11.7241 -3.07299
upperneck 11.3046 -15.9222 4.33142
head 5.21038 -7.65331 0.699403
lclavicle -1.94699e-15 -2.16013e-15 7.49004e-32
lhumerus -35.4887 -32.022 99.9869
lradius 54.824 -0 0
lwrist 14.8987 0 0
lhand -5.70038 -0.928321 0.191501
lfingers 7.12502 -0 0
lthumb 20.0703 27.457 0.00619949
rclavicle -1.94699e-15 -2.16013e-15 7.49004e-32
rhumerus -1.19476 32.0978 -77.1513
rradius 116.251 -0 0
rwrist -13.4104 0 0
rhand -11.766 -16.5308 0.420592
rfingers 7.12502 -0 0
rthumb 14.2434 -45.4142 0.548279
549
root 5.85763 16.4191 -4.47606 -103.074 87.9644 -108.669
lfemur -21.1964 -3.55233 -21.0147
ltibia 46.2706 -0 0
lfoot -28.6127 2.93764 -0.288418
ltoes 7.11293 -0 0
rfemur -51.3736 -2.2873 12.5623
rtibia 61.528 -0 0
rfoot 7.78657 9.79274 0.00125827
rtoes -19.4679 0 0
lowerback 5.5255 -0.772214 -3.61532
upperback 1.30656 -1.16228 1.85916
thorax -1.60736 -0.562539 4.01462
lowerneck -7.21058 -11.7542 -3.08889
upperneck 11.3368 -15.9695 4.38311
head 5.22099 -7.67344 0.714168
lclavicle -1.98067e-15 -2.03423e-15 7.47894e-32
lhumerus -35.217 -31.9428 99.6296
lradius 54.7899 -0 0
lwrist 15.1221 0 0
lhand -6.01033 -0.963475 0.191216
lfingers 7.12502 -0 0
lthumb 19.7728 27.4558 0.00619026
rclavicle -1.98067e-15 -2.03423e-15 7.47894e-32
rhumerus -0.5492 31.7665 -76.9623
rradius 116.644 -0 0
rwrist -14.1247 0 0
rhand -12.1029 -16.6019 0.419964
rfingers 7.12502 -0 0
rthumb 13.9189 -45.5105 0.547461
550
root 5.86647 16.4183 -4.45072 -102.379 87.9523 -107.968
lfemur -21.1094 -3.22869 -20.9769
ltibia 46.2399 -0 0
lfoot -28.6852 3.16405 -0.287702
ltoes 6.94914 -0 0
rfemur -51.2169 -2.4939 12.6486
rtibia 61.361 -0 0
rfoot 7.78305 9.77244 0.00125515
rtoes -19.5362 0 0
lowerback 5.49968 -0.782932 -3.66433
upperback 1.32214 -1.17825 1.86425
thorax -1.57419 -0.571374 4.04798
lowerneck -7.1694 -11.7842 -3.10481
upperneck 11.3689 -16.0168 4.43478
head 5.23161 -7.69357 0.72893
lclavicle -2.01435e-15 -1.90833e-15 7.46044e-32
lhumerus -34.9461 -31.8621 99.2731
lradius 54.7559 -0 0
lwrist 15.3456 0 0
lhand -6.32028 -0.998627 0.190741
lfingers 7.12502 -0 0
lthumb 19.4753 27.4546 0.00617488
rclavicle -2.01435e-15 -1.90833e-15 7.46044e-32
rhumerus 0.0927745 31.4333 -76.7784
rradius 117.036 -0 0
rwrist -14.839 0 0
rhand -12.4399 -16.673 0.418919
rfingers 7.12502 -0 0
rthumb 13.5945 -45.6067 0.546099
551
root 5.87532 16.4174 -4.42537 -101.691 87.9399 -107.276
lfemur -21.0221 -2.90511 -20.9385
ltibia 46.2093 -0 0
lfoot -28.7576 3.39046 -0.2867
ltoes 6.78535 -0 0
rfemur -51.0605 -2.70074 12.7344
rtibia 61.1941 -0 0
rfoot 7.77954 9.75214 0.0012508
rtoes -19.6046 0 0
lowerback 5.47387 -0.793672 -3.71334
upperback 1.33773 -1.19422 1.86934
thorax -1.54102 -0.580229 4.08134
lowerneck -7.1282 -11.8143 -3.12075
upperneck 11.401 -16.0642 4.48644
head 5.24222 -7.71371 0.743688
lclavicle -2.04804e-15 -1.78244e-15 7.43453e-32
lhumerus -34.676 -31.78 98.9174
lradius 54.7218 -0 0
lwrist 15.569 0 0
lhand -6.63023 -1.03378 0.190075
lfingers 7.12502 -0 0
lthumb 19.1778 27.4534 0.00615334
rclavicle -2.04804e-15 -1.78244e-15 7.43453e-32
rhumerus 0.731228 31.0984 -76.5995
rradius 117.429 -0 0
rwrist -15.5533 0 0
rhand -12.7769 -16.7441 0.417456
rfingers 7.12502 -0 0
rthumb 13.27 -45.7029 0.544191
552
root 5.88416 16.4166 -4.40003 -101.012 87.9272 -106.592
lfemur -20.9347 -2.58159 -20.8997
ltibia 46.1786 -0 0
lfoot -28.83 3.61686 -0.285412
ltoes 6.62156 -0 0
rfemur -50.9044 -2.90781 12.8197
rtibia 61.0271 -0 0
rfoot 7.77602 9.73184 0.00124519
rtoes -19.673 0 0
lowerback 5.44807 -0.804434 -3.76235
upperback 1.35331 -1.21019 1.87442
thorax -1.50786 -0.589103 4.11469
lowerneck -7.087 -11.8443 -3.13671
upperneck 11.4331 -16.1116 4.53809
head 5.25282 -7.73385 0.758444
lclavicle -2.08172e-15 -1.65654e-15 7.40123e-32
lhumerus -34.4068 -31.6965 98.5625
lradius 54.6878 -0 0
lwrist 15.7925 0 0
lhand -6.94019 -1.06892 0.189219
lfingers 7.12502 -0 0
lthumb 18.8803 27.4522 0.00612565
rclavicle -2.08172e-15 -1.65654e-15 7.40123e-32
rhumerus 1.36622 30.7619 -76.4256
rradius 117.822 -0 0
rwrist -16.2676 0 0
rhand -13.1139 -16.8152 0.415574
rfingers 7.12502 -0 0
rthumb 12.9456 -45.7991 0.541739
553
root 5.893 16.4157 -4.37469 -100.342 87.9142 -105.916
lfemur -20.8471 -2.25812 -20.8605
ltibia 46.1479 -0 0
lfoot -28.9025 3.84327 -0.283838
ltoes 6.45777 -0 0
rfemur -50.7486 -3.11511 12.9044
rtibia 60.8601 -0 0
rfoot 7.77251 9.71154 0.00123834
rtoes -19.7414 0 0
lowerback 5.42227 -0.815218 -3.81135
upperback 1.36889 -1.22616 1.8795
thorax -1.4747 -0.597997 4.14804
lowerneck -7.04578 -11.8743 -3.1527
upperneck 11.4651 -16.159 4.58972
head 5.26342 -7.75399 0.773196
lclavicle -2.1154e-15 -1.53064e-15 7.36052e-32
lhumerus -34.1385 -31.6116 98.2084
lradius 54.6537 -0 0
lwrist 16.0159 0 0
lhand -7.25014 -1.10406 0.188173
lfingers 7.12502 -0 0
lthumb 18.5828 27.451 0.00609181
rclavicle -2.1154e-15 -1.53064e-15 7.36052e-32
rhumerus 1.99783 30.4237 -76.2566
rradius 118.215 -0 0
rwrist -16.9819 0 0
rhand -13.4508 -16.8863 0.413275
rfingers 7.12502 -0 0
rthumb 12.6211 -45.8953 0.538742
554
root 5.90184 16.4149 -4.34934 -99.68 87.9009 -105.249
lfemur -20.7593 -1.93472 -20.8207
ltibia 46.1173 -0 0
lfoot -28.9749 4.06967 -0.281977
ltoes 6.29398 -0 0
rfemur -50.593 -3.32264 12.9885
rtibia 60.6932 -0 0
rfoot 7.76899 9.69124 0.00123025
rtoes -19.8097 0 0
lowerback 5.39649 -0.826024 -3.86034
upperback 1.38447 -1.24214 1.88457
thorax -1.44154 -0.606909 4.18138
lowerneck -7.00454 -11.9043 -3.16871
upperneck 11.4971 -16.2065 4.64134
head 5.27401 -7.77413 0.787945
lclavicle -2.14909e-15 -1.40475e-15 7.31241e-32
lhumerus -33.871 -31.5253 97.855
lradius 54.6197 -0 0
lwrist 16.2394 0 0
lhand -7.56009 -1.1392 0.186938
lfingers 7.12502 -0 0
lthumb 18.2853 27.4499 0.00605181
rclavicle -2.14909e-15 -1.40475e-15 7.31241e-32
rhumerus 2.6261 30.084 -76.0926
rradius 118.608 -0 0
rwrist -17.6962 0 0
rhand -13.7878 -16.9573 0.410557
rfingers 7.12502 -0 0
rthumb 12.2967 -45.9915 0.535201
